<?xml version="1.0" encoding="UTF-8" standalone="no"?>
<svg
   viewBox="0 0 276.31525 156.64562"
   version="1.1"
   id="svg6"
   sodipodi:docname="acu_logo_v2.svg"
   inkscape:version="1.1.2 (0a00cf5339, 2022-02-04)"
   width="276.31525"
   height="156.64561"
   xmlns:inkscape="http://www.inkscape.org/namespaces/inkscape"
   xmlns:sodipodi="http://sodipodi.sourceforge.net/DTD/sodipodi-0.dtd"
   xmlns="http://www.w3.org/2000/svg"
   xmlns:svg="http://www.w3.org/2000/svg">
  <defs
     id="defs10" />
  <sodipodi:namedview
     id="namedview8"
     pagecolor="#8b8767"
     bordercolor="#666666"
     borderopacity="1.0"
     inkscape:pageshadow="2"
     inkscape:pageopacity="0"
     inkscape:pagecheckerboard="true"
     showgrid="false"
     inkscape:zoom="2.5630237"
     inkscape:cx="102.61318"
     inkscape:cy="128.94926"
     inkscape:window-width="1920"
     inkscape:window-height="1043"
     inkscape:window-x="1920"
     inkscape:window-y="0"
     inkscape:window-maximized="1"
     inkscape:current-layer="svg6"
     fit-margin-top="0"
     fit-margin-left="0"
     fit-margin-right="0"
     fit-margin-bottom="0" />
  <path
     fill="#ffffff"
     d="m 136.70022,154.07281 a 76.8,76.8 0 0 1 -48.069997,-18.71 82.44,82.44 0 0 1 -9.7,-10.18 64.02,64.02 0 0 1 -2.98,-4.01 l -0.36,-0.53 -0.16,-0.02 c -0.09,0 -13.12,-0.02 -28.95,-0.02 -16.44,0 -30.02,-0.01 -31.65,-0.03 -4.99,-0.04 -6.22,-0.1 -7.17,-0.34 a 6.85,6.85 0 0 1 -2.14,-1.17 9.72,9.72 0 0 1 -1.97,-2.17 8.25,8.25 0 0 1 -0.65,-1.35 c -0.25,-0.86 -0.3,-2.03 -0.36,-6.9 -0.05,-3.85 -0.05,-57.439999 0,-61.289999 0.04,-3.58 0.08,-4.8 0.17,-5.8 0.09,-0.84 0.17,-1.15 0.5,-1.8 a 9.89,9.89 0 0 1 2.85,-3.2 8.5,8.5 0 0 1 1.4,-0.72 c 0.79,-0.25 1.93,-0.33 5.8,-0.39 1.25,-0.02 12.1,-0.03 32.3,-0.04 l 30.41,-0.01 0.22,-0.32 a 76.96,76.96 0 0 1 14.98,-15.94 76.44,76.44 0 0 1 39.699997,-16.25 70.2,70.2 0 0 1 10.73,-0.3 76.43,76.43 0 0 1 58.77,32.62 l 0.12,0.19 30.35,0.01 c 20.1,0 30.98,0.02 32.23,0.04 3.9,0.06 5.03,0.14 5.82,0.4 0.3,0.1 1.03,0.49 1.42,0.74 0.43,0.3 0.76,0.58 1.28,1.1 a 7.11,7.11 0 0 1 1.91,3.1 c 0.16,0.76 0.22,1.9 0.27,5.1 0.05,2.84 0.05,61.379999 0,64.239999 -0.06,3.48 -0.12,4.52 -0.32,5.33 a 6.89,6.89 0 0 1 -1.88,2.9 6.98,6.98 0 0 1 -2.95,1.9 c -0.7,0.17 -1.75,0.24 -4.56,0.3 -0.96,0.02 -10.6,0.04 -32.26,0.05 l -30.89,0.01 -0.06,0.08 -0.66,0.94 a 76.47,76.47 0 0 1 -59.16,32.4 c -0.6,0.03 -3.54,0.05 -4.33,0.03 z"
     id="path2" />
  <path
     fill-rule="evenodd"
     stroke="#ffffff"
     stroke-width="2"
     d="m 136.70022,154.07281 a 76.8,76.8 0 0 1 -48.069997,-18.71 82.44,82.44 0 0 1 -9.7,-10.18 64.02,64.02 0 0 1 -2.98,-4.01 l -0.36,-0.53 -0.16,-0.02 c -0.09,0 -13.12,-0.02 -28.95,-0.02 -16.44,0 -30.02,-0.01 -31.65,-0.03 -4.99,-0.04 -6.22,-0.1 -7.17,-0.34 a 6.85,6.85 0 0 1 -2.14,-1.17 9.72,9.72 0 0 1 -1.97,-2.17 8.25,8.25 0 0 1 -0.65,-1.35 c -0.25,-0.86 -0.3,-2.03 -0.36,-6.9 -0.05,-3.85 -0.05,-57.439999 0,-61.289999 0.04,-3.58 0.08,-4.8 0.17,-5.8 0.09,-0.84 0.17,-1.15 0.5,-1.8 a 9.89,9.89 0 0 1 2.85,-3.2 8.5,8.5 0 0 1 1.4,-0.72 c 0.79,-0.25 1.93,-0.33 5.8,-0.39 1.25,-0.02 12.1,-0.03 32.3,-0.04 l 30.41,-0.01 0.22,-0.32 a 76.96,76.96 0 0 1 14.98,-15.94 76.44,76.44 0 0 1 39.699997,-16.25 70.2,70.2 0 0 1 10.73,-0.3 76.43,76.43 0 0 1 58.77,32.62 l 0.12,0.19 30.35,0.01 c 20.1,0 30.98,0.02 32.23,0.04 3.9,0.06 5.03,0.14 5.82,0.4 0.3,0.1 1.03,0.49 1.42,0.74 0.43,0.3 0.76,0.58 1.28,1.1 a 7.11,7.11 0 0 1 1.91,3.1 c 0.16,0.76 0.22,1.9 0.27,5.1 0.05,2.84 0.05,61.379999 0,64.239999 -0.06,3.48 -0.12,4.52 -0.32,5.33 a 6.89,6.89 0 0 1 -1.88,2.9 6.98,6.98 0 0 1 -2.95,1.9 c -0.7,0.17 -1.75,0.24 -4.56,0.3 -0.96,0.02 -10.6,0.04 -32.26,0.05 l -30.89,0.01 -0.06,0.08 -0.66,0.94 a 76.47,76.47 0 0 1 -59.16,32.4 c -0.6,0.03 -3.54,0.05 -4.33,0.03 z m 2.26,-12.77 c 1.9,-0.05 3.84,-0.14 4.87,-0.22 a 70.1,70.1 0 0 0 9.23,-1.5 62.88,62.88 0 0 0 32.62,-19.73 60.92,60.92 0 0 0 9.04,-13.36 63.12,63.12 0 0 0 6.36,-21.399999 v -0.08 h -8.06 c -4.83,0 -8.05,0 -8.06,0.02 l -0.16,0.83 a 47.43,47.43 0 0 1 -24.3,33.999999 48.16,48.16 0 0 1 -17.24,5.33 54,54 0 0 1 -10.47,-0.05 45.75,45.75 0 0 1 -16.9,-5.25 47.3,47.3 0 0 1 -24.409997,-34.299999 l -0.1,-0.57 h -16.13 c -0.02,0.03 0.12,1.37 0.2,1.97 0.07,0.44 0.3,1.78 0.56,3.17 a 62.79,62.79 0 0 0 5.83,16.799999 61,61 0 0 0 11.25,15.51 62.79,62.79 0 0 0 40.229997,18.66 l 1.65,0.16 c 0.43,0.04 2.62,0.05 3.99,0.01 z m 0.18,-28.54 a 64.4,64.4 0 0 0 3.66,-0.2 34.3,34.3 0 0 0 17.05,-7.04 c 0.82,-0.63 2.47,-2.02 2.46,-2.06 -0.02,-0.05 -11.44,-11.399999 -11.47,-11.399999 -0.04,0 -0.95,0.8 -1.54,1.36 a 15.63,15.63 0 0 1 -8.5,4.16 c -1.04,0.16 -1.9,0.22 -3.03,0.2 a 15.2,15.2 0 0 1 -3.72,-0.48 17.29,17.29 0 0 1 -10.18,-7.11 24.83,24.83 0 0 1 -2.52,-5.01 l -0.06,-0.16 h -8.74 a 250,250 0 0 0 -8.75,0.02 c 0,0.1 0.17,0.98 0.27,1.36 a 31.79,31.79 0 0 0 3.46,8.86 c 2.28,4 5.46,7.599999 9.24,10.449999 a 35.09,35.09 0 0 0 10.77,5.55 c 1.72,0.53 3.56,0.94 5.3,1.18 0.85,0.12 2.8,0.32 3.23,0.34 0.5,0.03 1.77,0.02 3.07,-0.02 z m 103.34,0.02 a 35.6,35.6 0 0 0 3.4,-0.14 c 5.12,-0.58 9.49,-2.26 13.05,-5.04 a 23.48,23.48 0 0 0 4.95,-5.35 c 2.35,-3.499999 3.48,-7.559999 3.79,-13.569999 l 0.13,-3.64 c 0,-0.03 -1.73,-0.03 -8.57,-0.03 -7.78,0 -8.56,0 -8.58,0.04 l -0.01,1.11 c 0,0.6 -0.02,1.3 -0.03,1.57 -0.18,3.39 -0.95,5.97 -2.27,7.68 -0.34,0.44 -0.9,0.96 -1.35,1.25 -0.33,0.21 -1.13,0.58 -1.59,0.73 -1.01,0.34 -2.37,0.42 -7.41,0.39 -3.78,-0.02 -4.13,-0.04 -5,-0.3 a 7.15,7.15 0 0 1 -3.29,-2.02 10.05,10.05 0 0 1 -2.2,-4.7 20.9,20.9 0 0 1 -0.43,-4.47 l -0.02,-1.28 h -17.1 v 1.34 c 0,2.2 0.08,3.8 0.26,5.35 0.65,5.38 2.36,9.589999 5.27,12.929999 0.36,0.41 1.33,1.38 1.74,1.74 3.8,3.31 8,5.25 13.09,6.06 1.28,0.2 2.52,0.32 3.53,0.35 1.07,0.03 6.83,0.03 8.64,0 z m -213.259997,-6.02 1.75,-4.79 4.63,0.01 c 10.06,0.02 18.62,0.05 18.65,0.08 l 1.63,4.74 1.62,4.74 c 0.02,0.04 14.58,0.04 16.44,0 1.62,-0.03 1.95,-0.06 1.97,-0.19 0.01,-0.05 -1.04,-2.71 -8.86,-22.399999 l -1.56,-3.93 h -8.36 c -6.31,0 -8.36,0 -8.38,0.03 -0.03,0.02 0.08,0.4 0.43,1.56 0.26,0.84 0.46,1.53 0.45,1.54 -0.03,0.03 -4.3,0.08 -6.86,0.08 -2.63,0 -6.96,-0.05 -7,-0.08 0,0 0.08,-0.33 0.2,-0.7 0.6,-1.95 0.71,-2.37 0.68,-2.4 -0.02,-0.02 -1.93,-0.03 -6.82,-0.04 -7.92,0 -9.82,0.02 -10.07,0.14 -0.06,0.03 -0.37,0.77 -2.27,5.5 -6.27,15.629999 -8.3,20.679999 -8.3,20.719999 0,0.18 0.84,0.2 10.76,0.19 h 7.53 z m -2.98,-22.669999 a 4.95,4.95 0 0 0 2.73,-0.99 5.74,5.74 0 0 0 2.19,-5.1 c -0.03,-1.52 -0.1,-1.93 -0.5,-2.77 a 5.4,5.4 0 0 0 -2.94,-2.85 6.6,6.6 0 0 0 -3.78,-0.14 5.25,5.25 0 0 0 -3.85,3.3 7.1,7.1 0 0 0 -0.46,2.43 c -0.09,3.11 1.8,5.7 4.48,6.08 0.61,0.1 1.44,0.1 2.13,0.04 z m -1.32,-2.27 a 2.76,2.76 0 0 1 -1.56,-0.8 c -0.5,-0.5 -0.8,-1.26 -0.98,-2.38 a 6.2,6.2 0 0 1 0,-1.56 c 0.1,-0.58 0.39,-1.26 0.67,-1.64 a 2.98,2.98 0 0 1 4.04,-0.58 c 0.98,0.68 1.5,2.32 1.26,4.04 -0.15,1.07 -0.6,1.96 -1.23,2.39 -0.18,0.12 -0.56,0.3 -0.83,0.4 a 2.3,2.3 0 0 1 -1.37,0.13 z m 223.179997,2.27 a 5.73,5.73 0 0 0 2.53,-0.8 c 0.3,-0.2 0.79,-0.7 1,-1 0.34,-0.53 0.52,-0.98 0.59,-1.48 0.02,-0.17 0.05,-0.67 0.06,-1.1 0.04,-0.98 0.1,-6.69 0.08,-7.4 0,-0.02 -0.27,-0.03 -1.34,-0.02 h -1.34 l -0.01,3.67 c -0.02,3.7 -0.03,4.1 -0.12,4.54 -0.13,0.62 -0.68,1.14 -1.39,1.32 -0.26,0.07 -0.76,0.09 -1.03,0.03 a 1.9,1.9 0 0 1 -1.54,-1.36 c -0.12,-0.44 -0.13,-0.55 -0.14,-4.5 l -0.02,-3.7 h -2.53 v 3.58 c 0,3.74 0.01,4.28 0.12,5 a 3.37,3.37 0 0 0 1.44,2.37 c 0.7,0.47 1.53,0.76 2.48,0.88 0.2,0.02 0.82,0.01 1.16,-0.03 z m -151.899997,-0.06 c 0.73,-0.1 1.36,-0.25 1.95,-0.48 0.36,-0.14 0.51,-0.25 0.52,-0.35 a 8.34,8.34 0 0 0 -0.5,-1.72 c -0.08,-0.13 -0.1,-0.13 -0.54,0 -0.56,0.17 -1,0.27 -1.28,0.32 a 4.73,4.73 0 0 1 -2.76,-0.25 2.4,2.4 0 0 1 -0.83,-0.6 3.46,3.46 0 0 1 -0.85,-1.9 8.3,8.3 0 0 1 0,-1.95 c 0.34,-1.88 1.6,-2.91 3.48,-2.83 0.45,0.02 0.85,0.09 1.36,0.23 0.52,0.14 0.78,0.2 0.96,0.22 0.15,0.02 0.17,0.02 0.22,-0.04 0.11,-0.12 0.39,-0.87 0.54,-1.47 0.07,-0.3 0.07,-0.36 -0.04,-0.44 a 9.28,9.28 0 0 0 -2.43,-0.68 6.87,6.87 0 0 0 -4.21,0.8 c -0.7,0.4 -1.28,0.92 -1.66,1.5 a 5.54,5.54 0 0 0 -0.97,3.6 c 0,0.92 0.02,1.16 0.12,1.82 0.2,1.21 0.63,2.12 1.34,2.8 a 5.96,5.96 0 0 0 3.74,1.47 c 0.44,0.04 1.36,0.01 1.84,-0.05 z m 9.709997,0.05 a 4.15,4.15 0 0 0 3.65,-2.54 c 0.22,-0.5 0.25,-0.9 0.29,-3.17 0.03,-2.18 0.07,-6.01 0.06,-6.06 a 7.57,7.57 0 0 0 -1.34,-0.02 h -1.32 l -0.02,0.35 -0.05,3.15 c -0.04,4.07 -0.08,4.66 -0.34,5.18 a 1.2,1.2 0 0 1 -0.58,0.52 c -0.74,0.38 -1.32,0.46 -1.91,0.26 a 2.01,2.01 0 0 1 -1.24,-1.39 c -0.1,-0.43 -0.1,-0.6 -0.12,-4.4 l -0.02,-3.67 h -2.54 v 3.74 c 0,4.4 0.02,4.7 0.22,5.3 0.3,0.89 0.72,1.48 1.34,1.9 a 12.67,12.67 0 0 0 1.78,0.85 c 0.26,0.03 1.7,0.03 2.14,0 z m 87.8,0 c 0.7,-0.03 1.48,-0.11 1.86,-0.18 0.32,-0.06 0.9,-0.26 1.13,-0.38 a 0.74,0.74 0 0 0 0.2,-0.16 c 0.08,-0.1 0.1,-0.29 0.05,-0.5 -0.06,-0.22 -0.55,-1.55 -0.59,-1.6 -0.03,-0.03 -0.1,-0.01 -0.5,0.13 a 6,6 0 0 1 -2.07,0.4 c -0.62,0.02 -1.2,0 -1.46,-0.07 -0.2,-0.05 -0.59,-0.24 -0.86,-0.42 -0.62,-0.41 -1,-1 -1.17,-1.82 -0.09,-0.44 -0.11,-0.8 -0.1,-1.6 0.03,-1.14 0.1,-1.49 0.37,-1.97 0.54,-0.95 1.15,-1.38 2.12,-1.52 a 6.62,6.62 0 0 1 2.8,0.34 l 0.66,0.19 c 0.04,-0.01 0.07,-0.06 0.11,-0.18 0.19,-0.49 0.67,-1.84 0.67,-1.87 0,-0.04 -0.55,-0.32 -0.85,-0.43 a 9.34,9.34 0 0 0 -4.4,-0.3 c -0.79,0.18 -1.7,0.61 -2.31,1.12 -0.26,0.21 -0.7,0.66 -0.89,0.92 -0.44,0.6 -0.8,1.41 -0.97,2.16 -0.28,1.22 -0.18,3.27 0.19,4.43 a 5.27,5.27 0 0 0 3.6,3.25 12,12 0 0 0 2.41,0.06 z m -57.55,-0.02 a 4,4 0 0 0 3.53,-2.15 c 0.21,-0.43 0.33,-0.83 0.41,-1.46 0.14,-0.94 0.17,-1.86 0.17,-5.26 l 0.01,-2.9 h -2.66 l -0.02,3.6 c -0.02,4.28 -0.03,4.53 -0.24,4.96 -0.45,0.9 -1.65,1.3 -2.7,0.89 a 1.86,1.86 0 0 1 -0.98,-0.87 c -0.26,-0.49 -0.27,-0.64 -0.3,-2.83 l -0.02,-3.77 v -1.99 h -1.27 l -1.26,0.01 v 3.67 c 0,3.77 0.01,4.2 0.11,4.88 0.09,0.6 0.25,1.03 0.6,1.55 a 4.3,4.3 0 0 0 2.99,1.66 c 0.3,0.04 1.27,0.04 1.64,0 z m -124.329997,-2.1 v -1.89 l 0.07,-0.01 0.8,-0.03 a 8.8,8.8 0 0 0 1.92,-0.2 5.02,5.02 0 0 0 2.58,-1.13 c 0.5,-0.53 0.84,-1.54 0.84,-2.53 0,-1.21 -0.28,-1.95 -1.02,-2.65 -0.74,-0.7 -1.7,-1.03 -3.37,-1.14 -0.53,-0.03 -2.27,-0.01 -2.93,0.03 -0.38,0.03 -1.38,0.15 -1.42,0.18 -0.03,0.01 -0.03,11.24 0,11.26 0,0.01 0.58,0.02 1.27,0.02 l 1.26,-0.01 z m 0.04,-4.18 c -0.03,-0.02 -0.03,-0.36 -0.03,-1.62 l 0.01,-1.6 h 0.86 c 0.57,0 0.93,0.02 1.08,0.04 0.93,0.15 1.43,0.51 1.56,1.15 0.04,0.22 0.04,0.68 -0.01,0.87 -0.16,0.6 -0.6,0.94 -1.44,1.09 -0.42,0.07 -1.94,0.12 -2.03,0.07 z m 29.2,6.05 c 0.03,-0.06 0.02,-2.16 0,-2.2 a 28.1,28.1 0 0 0 -2.55,-0.04 h -2.52 l -0.01,-4.65 -0.01,-4.65 h -2.68 l -0.01,5.76 c -0.01,3.17 0,5.77 0.01,5.79 0.01,0.02 0.81,0.03 3.88,0.03 3.5,0 3.87,0 3.88,-0.04 z m 4.38,-5.75 v -5.8 h -1.26 l -1.26,0.01 -0.01,5.76 v 5.79 c 0.02,0.03 0.3,0.03 1.27,0.03 h 1.26 z m 7.92,1.13 0.01,-4.65 h 1.76 l 1.75,-0.02 v -2.25 h -4.85 c -3.87,0 -4.86,0 -4.88,0.02 -0.01,0.02 -0.02,0.52 -0.02,1.1 0,0.88 0,1.09 0.03,1.11 0.03,0.02 0.54,0.03 1.76,0.04 h 1.73 l 0.01,4.63 0.02,4.65 c 0.01,0.03 0.3,0.03 1.34,0.03 l 1.33,-0.01 z m 7.77,4.62 c 0.03,-0.06 0.02,-11.48 0,-11.52 a 9.28,9.28 0 0 0 -1.35,-0.02 h -1.32 v 5.76 c -0.02,3.17 0,5.77 0,5.79 0.01,0.02 0.3,0.03 1.33,0.03 1.18,0 1.32,0 1.34,-0.04 z m 11.02,-1.1 v -1.12 h -2.82 l -2.8,-0.02 v -2.64 h 2.29 c 1.64,-0.01 2.3,-0.02 2.33,-0.05 a 5,5 0 0 0 0.03,-1.1 c 0,-0.59 0,-1.09 -0.02,-1.1 a 23.8,23.8 0 0 0 -2.33,-0.04 l -2.3,-0.01 v -2.09 h 2.6 l 2.6,-0.02 v -2.25 h -7.77 l -0.02,3.65 a 145.83,145.83 0 0 1 -0.16,7.9 c 0.01,0.03 0.86,0.03 4.19,0.03 l 4.18,-0.01 z m 4.53,-0.76 c 0.01,-1.78 0.05,-2.67 0.1,-2.81 0.01,-0.04 0.04,-0.07 0.06,-0.07 0.16,0 2.2,2.28 3.1,3.46 a 19.55,19.55 0 0 1 0.9,1.28 c 0.03,0.04 0.14,0.04 1.11,0.04 1.14,0 2,-0.03 2.04,-0.07 0.02,-0.02 0.02,-0.05 0.01,-0.08 a 26.48,26.48 0 0 0 -4.19,-5.27 c -0.43,-0.45 -0.8,-0.83 -0.8,-0.85 0,-0.02 1.07,-1.2 2.37,-2.62 1.3,-1.41 2.37,-2.59 2.36,-2.6 0,-0.03 -1.71,-0.1 -2.68,-0.1 h -0.44 l -0.23,0.26 a 215.65,215.65 0 0 1 -3.7,3.86 l -0.01,-2.06 -0.02,-2.05 h -2.51 v 5.76 c -0.02,3.17 0,5.77 0,5.79 0.01,0.03 0.28,0.03 1.26,0.03 l 1.25,-0.01 z m 43.519997,0.77 v -1.13 h -2.6 l -2.6,-0.02 -0.01,-4.65 -0.02,-4.65 h -2.66 l -0.01,5.76 v 5.79 c 0.02,0.03 0.82,0.03 3.96,0.03 l 3.94,-0.01 z m 5.5,-3.5 c 0,-2.54 0.02,-4.64 0.03,-4.66 0.01,-0.02 0.4,-0.03 1.7,-0.04 h 1.67 v -2.25 h -9.59 v 2.25 h 1.75 c 1.35,0.01 1.74,0.02 1.76,0.04 0.01,0.02 0.02,2.12 0.02,4.66 v 4.63 h 2.67 v -4.63 z m 19.65,2.65 0.02,-1.97 h 1.38 l 0.47,0.64 a 42.63,42.63 0 0 1 1.98,3 l 0.18,0.3 h 1.08 c 1.2,0.01 1.53,0 1.6,-0.1 0.06,-0.06 0.04,-0.13 -0.2,-0.6 a 25.5,25.5 0 0 0 -1.7,-2.72 c -0.69,-0.98 -0.7,-1.01 -0.42,-1.2 0.23,-0.15 0.78,-0.62 0.98,-0.83 0.7,-0.74 0.97,-1.78 0.77,-2.94 -0.31,-1.8 -1.55,-2.76 -3.96,-3.05 a 32.15,32.15 0 0 0 -3.22,-0.01 c -0.45,0.03 -1.42,0.15 -1.47,0.18 -0.03,0.01 -0.03,11.24 -0.01,11.26 0,0.01 0.58,0.02 1.26,0.02 l 1.24,-0.01 z m 0.02,-4.29 a 60.8,60.8 0 0 1 0,-3.02 c 0.05,-0.06 1.65,-0.02 2.02,0.04 0.94,0.18 1.4,0.56 1.48,1.24 0.1,0.8 -0.24,1.34 -1,1.6 -0.4,0.12 -0.7,0.16 -1.62,0.17 -0.8,0.02 -0.86,0.01 -0.88,-0.03 z m 16.79,5.14 v -1.13 h -2.81 l -2.82,-0.02 v -2.64 l 2.33,-0.02 c 1.28,0 2.32,-0.01 2.33,-0.02 v -1.12 l -0.01,-1.11 -2.33,-0.02 -2.32,-0.01 v -2.09 h 2.6 l 2.6,-0.02 v -2.25 h -7.73 l -0.01,5.76 v 5.79 c 0.02,0.03 0.85,0.03 4.1,0.03 l 4.07,-0.01 z m 10.2,0.05 -0.01,-1.13 -0.02,-0.06 h -2.8 l -2.8,-0.01 -0.02,-1.33 v -1.33 h 2.31 l 2.32,-0.01 v -2.24 l -2.31,-0.02 -2.31,-0.01 v -2.09 h 2.57 c 1.85,0 2.58,-0.02 2.6,-0.04 0.04,-0.02 0.04,-0.23 0.04,-1.1 0,-0.6 0,-1.09 -0.02,-1.1 -0.02,-0.03 -0.81,-0.04 -3.89,-0.03 h -3.86 l -0.01,5.76 v 5.79 c 0.02,0.02 0.85,0.03 4.1,0.02 h 4.1 z m 9.6,1.04 c 0.02,-0.06 0.02,-2.16 -0.01,-2.2 a 28.1,28.1 0 0 0 -2.54,-0.04 h -2.52 l -0.01,-4.65 -0.02,-4.65 h -2.53 l -0.01,5.76 v 5.79 c 0.02,0.02 0.8,0.03 3.82,0.03 3.44,0 3.8,0 3.82,-0.04 z m 25,-1.1 v -1.12 h -2.8 l -2.82,-0.02 v -2.64 l 2.31,-0.02 h 2.31 l 0.01,-1.14 0.01,-1.13 h -2.31 l -2.32,-0.01 v -2.09 h 2.6 l 2.6,-0.02 v -2.25 h -7.89 l -0.01,5.76 v 5.79 c 0.02,0.02 0.86,0.03 4.17,0.02 h 4.15 z m 4.52,1.12 c 0.01,-0.01 0.03,-1.26 0.04,-2.77 0.04,-3.49 0.05,-4.55 0.08,-4.55 0.03,0 0.79,0.95 1.22,1.52 a 68.6,68.6 0 0 1 3.8,5.79 c 0.03,0.03 0.28,0.03 1.2,0.03 l 1.16,-0.01 v -11.57 h -1.32 l -1.34,0.01 c 0,0.01 -0.03,1.23 -0.04,2.7 -0.04,2.95 -0.05,3.8 -0.08,3.8 -0.02,0 -0.38,-0.5 -0.81,-1.1 a 60.01,60.01 0 0 0 -3.62,-4.69 l -0.63,-0.73 h -1.08 l -1.09,0.01 v 5.76 c -0.02,3.17 0,5.77 0,5.79 0.01,0.02 0.29,0.03 1.26,0.03 0.68,0 1.24,0 1.25,-0.02 z m 15.28,-4.64 0.01,-4.65 h 1.68 l 1.69,-0.01 0.01,-0.06 0.01,-1.13 -0.01,-1.07 h -4.8 c -3.8,0 -4.79,0 -4.8,0.02 -0.01,0.02 -0.02,0.52 -0.02,1.1 0,0.87 0,1.09 0.03,1.11 0.03,0.02 0.54,0.03 1.76,0.04 h 1.73 l 0.01,4.62 0.02,4.66 c 0,0.02 0.3,0.03 1.34,0.03 l 1.33,-0.01 z m 7.77,4.66 0.02,-1.98 0.01,-1.97 h 1.37 l 0.4,0.56 c 0.72,1 1.16,1.66 1.82,2.73 l 0.4,0.65 h 1.08 c 1.18,0.01 1.52,0 1.6,-0.1 0.06,-0.04 0.06,-0.05 0.02,-0.17 -0.18,-0.5 -1.05,-1.92 -1.88,-3.1 -0.47,-0.67 -0.62,-0.92 -0.62,-1.05 0,-0.07 0.02,-0.1 0.13,-0.17 a 6.86,6.86 0 0 0 1.24,-1.12 c 0.5,-0.66 0.7,-1.56 0.57,-2.5 a 3.3,3.3 0 0 0 -0.93,-2.02 c -0.75,-0.74 -1.86,-1.13 -3.53,-1.25 a 31.5,31.5 0 0 0 -2.8,0.03 c -0.38,0.03 -1.38,0.15 -1.42,0.18 -0.02,0.01 -0.03,11.24 0,11.26 0,0.02 2.5,0.03 2.51,0.02 z m 0.02,-7.76 0.01,-1.55 h 0.8 c 1.07,0 1.48,0.07 1.95,0.3 0.54,0.25 0.78,0.68 0.74,1.33 -0.02,0.56 -0.25,0.9 -0.74,1.15 -0.47,0.23 -0.78,0.27 -1.88,0.3 h -0.88 l 0.01,-1.53 z m 22.54,7.73 0.05,-0.98 c 0.13,-3.73 0.2,-5.2 0.3,-5.9 0.04,-0.35 0.06,-0.43 0.1,-0.4 l 1.24,2.93 c 0.67,1.6 1.24,2.93 1.26,2.95 0.02,0.02 0.24,0.02 0.99,-0.01 0.53,-0.02 0.97,-0.05 0.98,-0.06 l 0.99,-2.29 c 0.92,-2.15 1.47,-3.4 1.5,-3.44 0.04,-0.04 0.07,0.07 0.1,0.43 0.09,0.81 0.17,2.32 0.27,4.92 0.04,0.97 0.08,1.79 0.1,1.82 l 0.02,0.06 h 1.3 c 0.78,0 1.32,0 1.33,-0.02 0.02,-0.04 -0.46,-6.85 -0.6,-8.44 -0.08,-0.97 -0.28,-2.78 -0.33,-3 l -0.01,-0.05 h -2.55 l -0.45,0.92 a 95.99,95.99 0 0 0 -2.34,5.17 c -0.15,0.38 -0.18,0.43 -0.23,0.43 -0.1,0 -0.19,-0.17 -0.88,-1.76 -0.8,-1.82 -1.61,-3.6 -2.05,-4.47 l -0.17,-0.36 h -1.06 c -1.12,-0.01 -1.46,0.01 -1.57,0.1 -0.06,0.03 -0.07,0.07 -0.09,0.24 l -0.1,1.01 a 169.67,169.67 0 0 0 -0.74,10.19 c 0,0.04 0.14,0.04 1.31,0.04 0.98,0 1.31,0 1.33,-0.03 z m -170.339997,-3.42 c 0.18,-0.04 0.35,-0.16 0.6,-0.42 0.42,-0.42 0.48,-0.55 0.48,-1.1 0,-0.37 0,-0.38 -0.08,-0.55 a 1.67,1.67 0 0 0 -0.36,-0.46 c -0.43,-0.45 -0.58,-0.51 -1.13,-0.51 -0.38,0 -0.56,0.03 -0.74,0.12 -0.27,0.13 -0.67,0.5 -0.76,0.71 a 2.91,2.91 0 0 0 -0.03,1.37 c 0.1,0.25 0.49,0.61 0.8,0.77 a 1,1 0 0 0 0.41,0.11 c 0.28,0.03 0.63,0.01 0.8,-0.04 z m -80.56,-0.03 c 0.26,-0.07 0.48,-0.17 0.68,-0.32 0.3,-0.22 0.37,-0.42 0.4,-0.97 0.02,-0.53 -0.06,-0.91 -0.23,-1.15 -0.24,-0.34 -1.04,-0.6 -1.53,-0.51 -0.26,0.04 -0.48,0.16 -0.68,0.35 -0.3,0.28 -0.47,0.65 -0.5,1.06 -0.04,0.43 0.1,0.8 0.41,1.13 0.42,0.46 0.84,0.58 1.45,0.41 z m 178.729997,-0.03 c 0.43,-0.14 0.7,-0.34 0.91,-0.65 0.17,-0.25 0.21,-0.42 0.21,-0.78 0,-0.28 0,-0.34 -0.07,-0.5 a 1.6,1.6 0 0 0 -1.13,-0.96 1.77,1.77 0 0 0 -0.86,0.02 1.54,1.54 0 0 0 -0.42,2.7 c 0.42,0.3 0.82,0.36 1.36,0.17 z m 86,0.06 c 0.18,-0.04 0.5,-0.16 0.64,-0.25 0.15,-0.1 0.36,-0.3 0.41,-0.4 0.16,-0.3 0.18,-1.08 0.05,-1.53 a 0.89,0.89 0 0 0 -0.38,-0.5 2,2 0 0 0 -1.29,-0.3 c -0.77,0.12 -1.31,0.96 -1.17,1.79 0.04,0.27 0.18,0.53 0.4,0.76 0.4,0.43 0.76,0.54 1.34,0.43 z m -230.009997,-9.4 0.49,-1.66 c 0.76,-2.56 1.17,-3.79 1.28,-3.79 0.06,0 0.25,0.5 0.6,1.54 l 0.89,2.9 0.33,1.12 h 15.44 c 0,-0.02 -0.52,-1.38 -1.18,-3.05 l -8.57,-21.56 -0.74,-1.86 h -13.51 l -0.08,0.2 c -0.3,0.7 -9.14,22.79 -9.88,24.65 -0.3,0.74 -0.53,1.37 -0.53,1.41 0,0.13 0.19,0.17 1.03,0.2 0.28,0 3.64,0.02 7.45,0.02 h 6.94 z m 50.47,0.06 0.2,-0.97 c 0.39,-2.02 0.55,-2.8 0.8,-3.77 a 47.14,47.14 0 0 1 41.439997,-35.31 c 2.52,-0.21 7.04,-0.18 9.25,0.05 a 48.65,48.65 0 0 1 17.34,5.3 46.72,46.72 0 0 1 13.91,11.28 47.8,47.8 0 0 1 10.42,22.5 l 0.18,0.94 c 0.02,0.04 0.42,0.05 8.08,0.05 h 8.07 v -0.1 c 0,-0.11 -0.15,-1.35 -0.21,-1.79 a 63.31,63.31 0 0 0 -18.58,-36.38 62.64,62.64 0 0 0 -33.55,-17.05 66.9,66.9 0 0 0 -21.13,0 c -1,0.17 -3.28,0.62 -4.07,0.8 -1.6,0.38 -4.7,1.3 -6.64,1.98 a 62.79,62.79 0 0 0 -25.379997,16.85 61.1,61.1 0 0 0 -10.04,14.59 61.76,61.76 0 0 0 -3.41,8.25 c -0.84,2.5 -1.46,4.8 -1.92,7.14 -0.16,0.8 -0.63,3.43 -0.7,3.91 -0.08,0.52 -0.22,1.75 -0.2,1.78 l 8.06,0.01 h 8.06 z m 135.659997,0.03 c 0.02,-0.05 -0.06,-26.42 -0.08,-26.44 -0.03,-0.03 -16.93,-0.1 -16.98,-0.08 -0.04,0.02 -0.04,1.64 -0.04,13.27 0,7.29 0,13.26 0.02,13.27 a 1837.88,1837.88 0 0 0 17.08,-0.02 z m 40.7,-13.24 -0.02,-13.27 -8.53,-0.01 c -6.8,0 -8.53,0 -8.54,0.02 -0.03,0.04 -0.03,26.43 -0.01,26.5 0.01,0.03 0.79,0.03 8.55,0.03 h 8.54 z m -146.54,13.19 c 0.02,-0.02 0.17,-0.38 0.34,-0.79 a 18.5,18.5 0 0 1 2.06,-3.98 17.3,17.3 0 0 1 4.18,-4.48 16.7,16.7 0 0 1 12.43,-3.2 c 2.37,0.34 4.73,1.28 7.02,2.79 1.08,0.7 1.72,1.2 3.19,2.44 0.46,0.39 0.85,0.7 0.86,0.7 0.02,0 2.58,-2.53 5.7,-5.62 l 5.66,-5.63 -0.24,-0.25 a 32.57,32.57 0 0 0 -8.53,-6.06 33.8,33.8 0 0 0 -13.33,-3.5 c -1.94,-0.12 -4.3,-0.1 -6.09,0.05 a 34.26,34.26 0 0 0 -15.01,5.04 35.69,35.69 0 0 0 -7.57,6.31 34.63,34.63 0 0 0 -8.13,15.68 c -0.08,0.36 -0.08,0.44 -0.02,0.46 0.29,0.09 1.45,0.1 9.6,0.08 6.43,0 7.85,-0.01 7.88,-0.04 z"
     paint-order="stroke fill markers"
     id="path4"
     style="stroke-width:5;stroke-miterlimit:4;stroke-dasharray:none" />
</svg>
